<mxfile host="Electron" modified="2023-06-10T20:55:44.162Z" agent="Mozilla/5.0 (X11; Linux x86_64) AppleWebKit/537.36 (KHTML, like Gecko) draw.io/21.3.7 Chrome/112.0.5615.204 Electron/24.5.0 Safari/537.36" etag="UyIXjR9B_VkrRlKgB9z6" version="21.3.7" type="device">
  <diagram id="nFSwjcjUfr4AS77WwuX2" name="Page-1">
    <mxGraphModel dx="912" dy="642" grid="1" gridSize="10" guides="1" tooltips="1" connect="1" arrows="1" fold="1" page="1" pageScale="1" pageWidth="827" pageHeight="1169" math="0" shadow="0">
      <root>
        <mxCell id="0" />
        <mxCell id="1" parent="0" />
        <mxCell id="AerbOweKTMdTE2A90vBg-1" value="" style="rounded=0;whiteSpace=wrap;html=1;fillColor=none;strokeColor=#000000;fontColor=#000000;" parent="1" vertex="1">
          <mxGeometry x="80" y="80" width="320" height="40" as="geometry" />
        </mxCell>
        <mxCell id="iJUtLo9P16RTX2wNaRi6-72" value="" style="rounded=0;whiteSpace=wrap;html=1;fillColor=none;strokeColor=#000000;fontColor=#000000;" parent="1" vertex="1">
          <mxGeometry x="400" y="80" width="320" height="40" as="geometry" />
        </mxCell>
        <mxCell id="iJUtLo9P16RTX2wNaRi6-74" value="Motor" style="rounded=0;whiteSpace=wrap;html=1;fillColor=#FF99FF;strokeColor=#000000;fontColor=#000000;" parent="1" vertex="1">
          <mxGeometry x="560" y="80" width="80" height="40" as="geometry" />
        </mxCell>
        <mxCell id="iJUtLo9P16RTX2wNaRi6-75" value="Elevator" style="rounded=0;whiteSpace=wrap;html=1;fillColor=#99CCFF;strokeColor=#000000;fontColor=#000000;" parent="1" vertex="1">
          <mxGeometry x="400" y="80" width="80" height="40" as="geometry" />
        </mxCell>
        <mxCell id="iJUtLo9P16RTX2wNaRi6-76" value="Aileron" style="rounded=0;whiteSpace=wrap;html=1;fillColor=#99CCFF;strokeColor=#000000;fontColor=#000000;" parent="1" vertex="1">
          <mxGeometry x="480" y="80" width="80" height="40" as="geometry" />
        </mxCell>
        <mxCell id="iJUtLo9P16RTX2wNaRi6-78" value="Rudder" style="rounded=0;whiteSpace=wrap;html=1;fillColor=#99CCFF;strokeColor=#000000;fontColor=#000000;" parent="1" vertex="1">
          <mxGeometry x="320" y="80" width="80" height="40" as="geometry" />
        </mxCell>
        <mxCell id="iJUtLo9P16RTX2wNaRi6-80" value="Timestamp (ms)" style="rounded=0;whiteSpace=wrap;html=1;fillColor=#FF99FF;strokeColor=#000000;fontColor=#000000;" parent="1" vertex="1">
          <mxGeometry x="80" y="80" width="240" height="40" as="geometry" />
        </mxCell>
        <mxCell id="iJUtLo9P16RTX2wNaRi6-103" value="State" style="rounded=0;whiteSpace=wrap;html=1;fillColor=#FF9999;strokeColor=#000000;fillStyle=solid;fontColor=#000000;" parent="1" vertex="1">
          <mxGeometry x="640" y="80" width="80" height="40" as="geometry" />
        </mxCell>
        <mxCell id="ahWw14lpm9OPq0ikuJb8-1" value="Pitch" style="rounded=0;whiteSpace=wrap;html=1;fillColor=#CCFF99;strokeColor=#000000;fontColor=#000000;fillStyle=auto;" vertex="1" parent="1">
          <mxGeometry x="80" y="130" width="320" height="40" as="geometry" />
        </mxCell>
        <mxCell id="ahWw14lpm9OPq0ikuJb8-3" value="Roll" style="rounded=0;whiteSpace=wrap;html=1;fillColor=#CCFF99;strokeColor=#000000;fontColor=#000000;" vertex="1" parent="1">
          <mxGeometry x="400" y="130" width="320" height="40" as="geometry" />
        </mxCell>
        <mxCell id="ahWw14lpm9OPq0ikuJb8-10" value="Acc. X" style="rounded=0;whiteSpace=wrap;html=1;fillColor=#CCFF99;strokeColor=#000000;fontColor=#000000;" vertex="1" parent="1">
          <mxGeometry x="400" y="180" width="320" height="40" as="geometry" />
        </mxCell>
        <mxCell id="ahWw14lpm9OPq0ikuJb8-11" value="Yaw" style="rounded=0;whiteSpace=wrap;html=1;fillColor=#CCFF99;strokeColor=#000000;fontColor=#000000;" vertex="1" parent="1">
          <mxGeometry x="80" y="180" width="320" height="40" as="geometry" />
        </mxCell>
        <mxCell id="ahWw14lpm9OPq0ikuJb8-14" value="Acc. Z" style="rounded=0;whiteSpace=wrap;html=1;fillColor=#CCFF99;strokeColor=#000000;fontColor=#000000;" vertex="1" parent="1">
          <mxGeometry x="400" y="230" width="320" height="40" as="geometry" />
        </mxCell>
        <mxCell id="ahWw14lpm9OPq0ikuJb8-15" value="Acc. Y" style="rounded=0;whiteSpace=wrap;html=1;fillColor=#CCFF99;strokeColor=#000000;fontColor=#000000;" vertex="1" parent="1">
          <mxGeometry x="80" y="230" width="320" height="40" as="geometry" />
        </mxCell>
        <mxCell id="ahWw14lpm9OPq0ikuJb8-19" style="edgeStyle=orthogonalEdgeStyle;rounded=0;orthogonalLoop=1;jettySize=auto;html=1;" edge="1" parent="1" source="ahWw14lpm9OPq0ikuJb8-18">
          <mxGeometry relative="1" as="geometry">
            <mxPoint x="80" y="70" as="targetPoint" />
          </mxGeometry>
        </mxCell>
        <mxCell id="ahWw14lpm9OPq0ikuJb8-20" style="edgeStyle=orthogonalEdgeStyle;rounded=0;orthogonalLoop=1;jettySize=auto;html=1;exitX=1;exitY=0.5;exitDx=0;exitDy=0;" edge="1" parent="1" source="ahWw14lpm9OPq0ikuJb8-18">
          <mxGeometry relative="1" as="geometry">
            <mxPoint x="720" y="70" as="targetPoint" />
          </mxGeometry>
        </mxCell>
        <mxCell id="ahWw14lpm9OPq0ikuJb8-18" value="64 bits" style="text;html=1;strokeColor=none;fillColor=none;align=center;verticalAlign=middle;whiteSpace=wrap;rounded=0;" vertex="1" parent="1">
          <mxGeometry x="370" y="20" width="60" height="30" as="geometry" />
        </mxCell>
        <mxCell id="ahWw14lpm9OPq0ikuJb8-36" style="edgeStyle=orthogonalEdgeStyle;rounded=0;orthogonalLoop=1;jettySize=auto;html=1;" edge="1" parent="1" source="ahWw14lpm9OPq0ikuJb8-35">
          <mxGeometry relative="1" as="geometry">
            <mxPoint x="80" y="70" as="targetPoint" />
            <Array as="points">
              <mxPoint x="80" y="60" />
            </Array>
          </mxGeometry>
        </mxCell>
        <mxCell id="ahWw14lpm9OPq0ikuJb8-37" style="edgeStyle=orthogonalEdgeStyle;rounded=0;orthogonalLoop=1;jettySize=auto;html=1;" edge="1" parent="1" source="ahWw14lpm9OPq0ikuJb8-35">
          <mxGeometry relative="1" as="geometry">
            <mxPoint x="320" y="70" as="targetPoint" />
            <Array as="points">
              <mxPoint x="320" y="60" />
            </Array>
          </mxGeometry>
        </mxCell>
        <mxCell id="ahWw14lpm9OPq0ikuJb8-35" value="3 bytes" style="text;html=1;strokeColor=none;fillColor=none;align=center;verticalAlign=middle;whiteSpace=wrap;rounded=0;" vertex="1" parent="1">
          <mxGeometry x="170" y="50" width="60" height="20" as="geometry" />
        </mxCell>
        <mxCell id="ahWw14lpm9OPq0ikuJb8-39" style="edgeStyle=orthogonalEdgeStyle;rounded=0;orthogonalLoop=1;jettySize=auto;html=1;" edge="1" parent="1" source="ahWw14lpm9OPq0ikuJb8-38">
          <mxGeometry relative="1" as="geometry">
            <mxPoint x="400" y="280" as="targetPoint" />
          </mxGeometry>
        </mxCell>
        <mxCell id="ahWw14lpm9OPq0ikuJb8-40" style="edgeStyle=orthogonalEdgeStyle;rounded=0;orthogonalLoop=1;jettySize=auto;html=1;" edge="1" parent="1" source="ahWw14lpm9OPq0ikuJb8-38">
          <mxGeometry relative="1" as="geometry">
            <mxPoint x="80" y="280" as="targetPoint" />
          </mxGeometry>
        </mxCell>
        <mxCell id="ahWw14lpm9OPq0ikuJb8-38" value="4 bytes" style="text;html=1;strokeColor=none;fillColor=none;align=center;verticalAlign=middle;whiteSpace=wrap;rounded=0;" vertex="1" parent="1">
          <mxGeometry x="200" y="300" width="60" height="20" as="geometry" />
        </mxCell>
        <mxCell id="ahWw14lpm9OPq0ikuJb8-41" value="" style="rounded=0;whiteSpace=wrap;html=1;fillColor=#FF99FF;strokeColor=none;" vertex="1" parent="1">
          <mxGeometry x="80" y="360" width="40" height="40" as="geometry" />
        </mxCell>
        <mxCell id="ahWw14lpm9OPq0ikuJb8-42" value="unsigned int" style="text;html=1;strokeColor=none;fillColor=none;align=left;verticalAlign=middle;whiteSpace=wrap;rounded=0;" vertex="1" parent="1">
          <mxGeometry x="130" y="365" width="70" height="30" as="geometry" />
        </mxCell>
        <mxCell id="ahWw14lpm9OPq0ikuJb8-43" value="" style="rounded=0;whiteSpace=wrap;html=1;fillColor=#99CCFF;strokeColor=none;" vertex="1" parent="1">
          <mxGeometry x="80" y="410" width="40" height="40" as="geometry" />
        </mxCell>
        <mxCell id="ahWw14lpm9OPq0ikuJb8-44" value="2&#39;s compliment" style="text;html=1;strokeColor=none;fillColor=none;align=left;verticalAlign=middle;whiteSpace=wrap;rounded=0;" vertex="1" parent="1">
          <mxGeometry x="130" y="415" width="90" height="30" as="geometry" />
        </mxCell>
        <mxCell id="ahWw14lpm9OPq0ikuJb8-45" value="" style="rounded=0;whiteSpace=wrap;html=1;fillColor=#CCFF99;strokeColor=none;" vertex="1" parent="1">
          <mxGeometry x="240" y="360" width="40" height="40" as="geometry" />
        </mxCell>
        <mxCell id="ahWw14lpm9OPq0ikuJb8-46" value="float" style="text;html=1;strokeColor=none;fillColor=none;align=left;verticalAlign=middle;whiteSpace=wrap;rounded=0;" vertex="1" parent="1">
          <mxGeometry x="290" y="365" width="30" height="30" as="geometry" />
        </mxCell>
        <mxCell id="ahWw14lpm9OPq0ikuJb8-47" value="" style="rounded=0;whiteSpace=wrap;html=1;fillColor=#FF9999;strokeColor=none;" vertex="1" parent="1">
          <mxGeometry x="240" y="410" width="40" height="40" as="geometry" />
        </mxCell>
        <mxCell id="ahWw14lpm9OPq0ikuJb8-48" value="flags" style="text;html=1;strokeColor=none;fillColor=none;align=left;verticalAlign=middle;whiteSpace=wrap;rounded=0;" vertex="1" parent="1">
          <mxGeometry x="290" y="415" width="50" height="30" as="geometry" />
        </mxCell>
        <mxCell id="ahWw14lpm9OPq0ikuJb8-51" style="edgeStyle=orthogonalEdgeStyle;rounded=0;orthogonalLoop=1;jettySize=auto;html=1;" edge="1" parent="1" source="ahWw14lpm9OPq0ikuJb8-50">
          <mxGeometry relative="1" as="geometry">
            <mxPoint x="720" y="70" as="targetPoint" />
            <Array as="points">
              <mxPoint x="720" y="60" />
            </Array>
          </mxGeometry>
        </mxCell>
        <mxCell id="ahWw14lpm9OPq0ikuJb8-52" style="edgeStyle=orthogonalEdgeStyle;rounded=0;orthogonalLoop=1;jettySize=auto;html=1;" edge="1" parent="1" source="ahWw14lpm9OPq0ikuJb8-50">
          <mxGeometry relative="1" as="geometry">
            <mxPoint x="640" y="70" as="targetPoint" />
            <Array as="points">
              <mxPoint x="640" y="60" />
            </Array>
          </mxGeometry>
        </mxCell>
        <mxCell id="ahWw14lpm9OPq0ikuJb8-50" value="byte" style="text;html=1;strokeColor=none;fillColor=none;align=center;verticalAlign=middle;whiteSpace=wrap;rounded=0;" vertex="1" parent="1">
          <mxGeometry x="650" y="50" width="60" height="20" as="geometry" />
        </mxCell>
      </root>
    </mxGraphModel>
  </diagram>
</mxfile>
